<svg width="81" height="24" viewBox="0 0 81 24" fill="none" xmlns="http://www.w3.org/2000/svg">
<path id="Line 1" d="M2 10.5005C1.17157 10.5005 0.5 11.1721 0.5 12.0005C0.5 12.8289 1.17157 13.5005 2 13.5005L2 10.5005ZM79.6599 13.0611C80.2456 12.4754 80.2456 11.5256 79.6599 10.9398L70.1139 1.39389C69.5281 0.8081 68.5784 0.8081 67.9926 1.39389C67.4068 1.97967 67.4068 2.92942 67.9926 3.51521L76.4779 12.0005L67.9926 20.4858C67.4068 21.0716 67.4068 22.0213 67.9926 22.6071C68.5784 23.1929 69.5281 23.1929 70.1139 22.6071L79.6599 13.0611ZM2 13.5005L78.5992 13.5005V10.5005L2 10.5005L2 13.5005Z" fill="#D0E0EF"/>
</svg>
