<svg width="228" height="227" viewBox="0 0 228 227" fill="none" xmlns="http://www.w3.org/2000/svg">
<g id="Group 36">
<g id="Ellipse 30" filter="url(#filter0_d_2897_164)">
<circle cx="110.34" cy="109.362" r="91.3616" fill="#9DDCFA"/>
</g>
<g id="Group">
<path id="Vector" d="M86.5413 66.2644C90.735 63.2087 95.8546 61.5605 101.115 61.5727C102.591 61.5727 103.766 62.3122 104.448 62.821C105.211 63.4009 105.924 64.1404 106.564 64.8799C107.017 65.4098 107.265 66.075 107.265 66.7613L107.265 88.1963L100.593 88.1963C99.8673 86.2226 98.4401 84.5591 96.5633 83.4998C94.6864 82.4405 92.4808 82.0537 90.3363 82.4078C88.1917 82.7618 86.2463 83.8338 84.8438 85.4344C83.4413 87.0349 82.6721 89.061 82.6721 91.1545C82.6721 93.2479 83.4413 95.274 84.8438 96.8746C86.2463 98.4752 88.1917 99.5472 90.3363 99.9012C92.4808 100.255 94.6864 99.8684 96.5633 98.8092C98.4401 97.7499 99.8673 96.0864 100.593 94.1127L107.265 94.1127L107.265 149.815C107.265 150.253 107.164 150.686 106.969 151.082C106.775 151.478 106.491 151.827 106.139 152.105C103.298 154.341 99.498 156.234 94.9659 156.234C87.6728 156.234 82.2429 152.696 78.7316 148.466C76.2089 145.452 74.4811 141.896 73.6953 138.101C71.3062 137.488 69.091 136.366 67.2139 134.817C63.8195 132.019 61.1445 127.481 61.1445 120.736C61.1445 117.441 61.3721 114.465 61.8825 111.862L81.1299 111.862C85.0409 111.862 88.2631 114.672 88.7551 118.305C86.7101 119.017 84.9924 120.401 83.9052 122.213C82.818 124.025 82.4314 126.149 82.8134 128.209C83.1955 130.269 84.3218 132.132 85.9934 133.471C87.665 134.809 89.7744 135.536 91.9491 135.524C94.1238 135.511 96.2241 134.76 97.8789 133.402C99.5337 132.045 100.637 130.168 100.993 128.104C101.35 126.04 100.937 123.921 99.8271 122.122C98.7175 120.322 96.9827 118.958 94.929 118.269C94.6698 114.919 93.1035 111.787 90.5442 109.501C87.9848 107.215 84.6219 105.945 81.1299 105.945L63.8564 105.945C64.7972 104.182 66.0579 102.691 67.6997 101.632C68.115 101.368 68.5509 101.134 69.0034 100.934C67.257 96.0118 67.712 90.2493 69.3969 85.7233C70.4731 82.8124 72.1826 80.0613 74.5316 78.2272C76.0813 77.0144 77.9261 76.2157 79.9431 76.0619C80.8286 72.021 83.3191 68.6782 86.5475 66.2644L86.5413 66.2644ZM113.414 135.527L118.026 135.527C121.695 135.527 125.215 134.125 127.809 131.628C130.404 129.132 131.862 125.746 131.862 122.215L131.862 111.359C133.913 110.661 135.642 109.288 136.743 107.482C137.844 105.676 138.246 103.554 137.878 101.491C137.511 99.4278 136.396 97.5561 134.733 96.2067C133.069 94.8574 130.963 94.1173 128.787 94.1173C126.611 94.1173 124.506 94.8574 122.842 96.2067C121.178 97.5561 120.064 99.4278 119.696 101.491C119.328 103.554 119.73 105.676 120.831 107.482C121.932 109.288 123.661 110.661 125.713 111.359L125.713 122.215C125.713 126.298 122.269 129.611 118.026 129.611L113.414 129.611L113.414 66.7613C113.414 66.075 113.661 65.4098 114.115 64.8799C114.748 64.1404 115.468 63.4009 116.23 62.821C116.907 62.3122 118.081 61.5727 119.563 61.5727C124.824 61.5605 129.944 63.2087 134.137 66.2644C137.366 68.6782 139.856 72.021 140.735 76.0619C142.752 76.2098 144.597 77.0144 146.147 78.2272C148.496 80.0613 150.205 82.8124 151.282 85.7233C152.966 90.2493 153.422 96.0177 151.675 100.928C152.118 101.129 152.554 101.366 152.979 101.638C154.67 102.721 155.955 104.271 156.902 106.099C158.765 109.679 159.534 114.672 159.534 120.736C159.534 127.487 156.859 132.019 153.465 134.817C151.588 136.366 149.372 137.488 146.983 138.101C146.368 141.402 144.646 145.224 141.947 148.466C138.442 152.696 133.006 156.234 125.713 156.234C121.187 156.234 117.38 154.341 114.545 152.105C114.192 151.828 113.907 151.478 113.712 151.083C113.516 150.687 113.414 150.254 113.414 149.815L113.414 135.527ZM91.8912 88.1963C91.0758 88.1963 90.2937 88.508 89.7171 89.0627C89.1405 89.6175 88.8166 90.3699 88.8166 91.1545C88.8166 91.939 89.1405 92.6915 89.7171 93.2462C90.2937 93.801 91.0758 94.1127 91.8912 94.1127C92.7067 94.1127 93.4887 93.801 94.0654 93.2462C94.642 92.6915 94.9659 91.939 94.9659 91.1545C94.9659 90.3699 94.642 89.6175 94.0654 89.0627C93.4887 88.508 92.7067 88.1963 91.8912 88.1963ZM91.8912 123.694C91.0758 123.694 90.2937 124.006 89.7171 124.561C89.1405 125.116 88.8166 125.868 88.8166 126.653C88.8166 127.437 89.1405 128.19 89.7171 128.744C90.2937 129.299 91.0758 129.611 91.8912 129.611C92.7067 129.611 93.4887 129.299 94.0654 128.744C94.642 128.19 94.9659 127.437 94.9659 126.653C94.9659 125.868 94.642 125.116 94.0654 124.561C93.4887 124.006 92.7067 123.694 91.8912 123.694ZM128.787 105.945C129.603 105.945 130.385 105.634 130.961 105.079C131.538 104.524 131.862 103.772 131.862 102.987C131.862 102.203 131.538 101.45 130.961 100.895C130.385 100.341 129.603 100.029 128.787 100.029C127.972 100.029 127.19 100.341 126.613 100.895C126.037 101.45 125.713 102.203 125.713 102.987C125.713 103.772 126.037 104.524 126.613 105.079C127.19 105.634 127.972 105.945 128.787 105.945Z" fill="black"/>
</g>
</g>
<defs>
<filter id="filter0_d_2897_164" x="0.978516" y="0" width="226.723" height="226.723" filterUnits="userSpaceOnUse" color-interpolation-filters="sRGB">
<feFlood flood-opacity="0" result="BackgroundImageFix"/>
<feColorMatrix in="SourceAlpha" type="matrix" values="0 0 0 0 0 0 0 0 0 0 0 0 0 0 0 0 0 0 127 0" result="hardAlpha"/>
<feMorphology radius="3" operator="erode" in="SourceAlpha" result="effect1_dropShadow_2897_164"/>
<feOffset dx="4" dy="4"/>
<feGaussianBlur stdDeviation="12.5"/>
<feComposite in2="hardAlpha" operator="out"/>
<feColorMatrix type="matrix" values="0 0 0 0 0 0 0 0 0 0 0 0 0 0 0 0 0 0 0.3 0"/>
<feBlend mode="normal" in2="BackgroundImageFix" result="effect1_dropShadow_2897_164"/>
<feBlend mode="normal" in="SourceGraphic" in2="effect1_dropShadow_2897_164" result="shape"/>
</filter>
</defs>
</svg>
