<svg width="228" height="228" viewBox="0 0 228 228" fill="none" xmlns="http://www.w3.org/2000/svg">
<g id="Group 32">
<g id="Ellipse 34" filter="url(#filter0_d_2897_181)">
<circle cx="110.34" cy="109.799" r="91.3616" fill="#FB634F"/>
</g>
<path id="Vector" d="M110.34 156.673C117.002 156.673 123.376 155.425 129.461 152.929C135.546 150.433 140.783 147.074 145.171 142.852C149.558 138.631 153.05 133.593 155.644 127.738C158.238 121.883 159.535 115.751 159.535 109.341C159.535 102.932 158.238 96.7999 155.644 90.9452C153.05 85.0904 149.558 80.0522 145.171 75.8306C140.783 71.609 135.546 68.2502 129.461 65.7542C123.376 63.2582 117.002 62.0103 110.34 62.0103C103.679 62.0103 97.3051 63.2582 91.2198 65.7542C85.1345 68.2502 79.898 71.609 75.5102 75.8306C71.1224 80.0522 67.6313 85.0904 65.0371 90.9452C62.4428 96.7999 61.1457 102.932 61.1457 109.341C61.1457 115.751 62.4428 121.883 65.0371 127.738C67.6313 133.593 71.1224 138.631 75.5102 142.852C79.898 147.074 85.1345 150.433 91.2198 152.929C97.3051 155.425 103.679 156.673 110.34 156.673ZM104.191 147.336C95.6076 146.042 88.2412 142.436 82.0919 136.52C75.9426 130.604 72.1953 123.516 70.8501 115.258H83.4371C84.5901 120.25 87.0562 124.548 90.8355 128.154C94.6148 131.759 99.0666 134.147 104.191 135.318V147.336ZM107.529 106.637L92.9493 103.425C93.9102 100.898 95.3674 98.695 97.3211 96.8153C99.2748 94.9357 101.565 93.5336 104.191 92.6092L107.529 106.637ZM92.9493 115.258L107.529 113.398L104.191 125.981C101.565 125.119 99.2748 123.732 97.3211 121.821C95.3674 119.911 93.9102 117.723 92.9493 115.258ZM113.854 113.398L127.732 115.258C126.771 117.723 125.313 119.911 123.36 121.821C121.406 123.732 119.116 125.119 116.49 125.981L113.854 113.398ZM116.49 147.336V135.318C121.678 134.147 126.146 131.759 129.893 128.154C133.641 124.548 136.091 120.25 137.244 115.258H149.831C148.486 123.516 144.738 130.604 138.589 136.52C132.44 142.436 125.073 146.042 116.49 147.336ZM116.49 71.3471C125.073 72.6413 132.44 76.2466 138.589 82.163C144.738 88.0794 148.486 95.1668 149.831 103.425H137.244C136.091 98.4331 133.641 94.1191 129.893 90.4829C126.146 86.8468 121.678 84.4741 116.49 83.3648V71.3471ZM127.732 103.425L113.854 106.637L116.49 92.6092C119.116 93.5336 121.406 94.9357 123.36 96.8153C125.313 98.695 126.771 100.898 127.732 103.425ZM104.191 71.3471V83.3648C99.0666 84.4741 94.6148 86.8468 90.8355 90.4829C87.0562 94.1191 84.5901 98.4331 83.4371 103.425H70.8501C72.1953 95.1668 75.9426 88.0794 82.0919 82.163C88.2412 76.2466 95.6076 72.6413 104.191 71.3471Z" fill="black"/>
</g>
<defs>
<filter id="filter0_d_2897_181" x="0.978516" y="0.4375" width="226.723" height="226.723" filterUnits="userSpaceOnUse" color-interpolation-filters="sRGB">
<feFlood flood-opacity="0" result="BackgroundImageFix"/>
<feColorMatrix in="SourceAlpha" type="matrix" values="0 0 0 0 0 0 0 0 0 0 0 0 0 0 0 0 0 0 127 0" result="hardAlpha"/>
<feMorphology radius="3" operator="erode" in="SourceAlpha" result="effect1_dropShadow_2897_181"/>
<feOffset dx="4" dy="4"/>
<feGaussianBlur stdDeviation="12.5"/>
<feComposite in2="hardAlpha" operator="out"/>
<feColorMatrix type="matrix" values="0 0 0 0 0 0 0 0 0 0 0 0 0 0 0 0 0 0 0.3 0"/>
<feBlend mode="normal" in2="BackgroundImageFix" result="effect1_dropShadow_2897_181"/>
<feBlend mode="normal" in="SourceGraphic" in2="effect1_dropShadow_2897_181" result="shape"/>
</filter>
</defs>
</svg>
