<svg width="228" height="228" viewBox="0 0 228 228" fill="none" xmlns="http://www.w3.org/2000/svg">
<g id="Group 33">
<g id="Ellipse 33" filter="url(#filter0_d_2897_177)">
<circle cx="109.66" cy="110.076" r="91.3616" fill="#F3CC1F"/>
</g>
<path id="Vector" d="M119.649 110.826C118.688 111.75 117.131 111.75 116.17 110.826L114.431 109.153C113.47 108.229 113.47 106.73 114.431 105.806L119.922 100.524L114.433 95.2409C113.472 94.3165 113.472 92.8181 114.433 91.8937L116.171 90.2209C117.132 89.2964 118.69 89.2964 119.65 90.2209L128.619 98.8499C129.58 99.7743 129.58 101.273 128.619 102.197L119.649 110.826ZM104.889 109.155L103.15 110.827C102.189 111.752 100.632 111.752 99.6711 110.827L90.7023 102.199C89.7415 101.274 89.7415 99.7758 90.7023 98.8513L99.6711 90.2223C100.632 89.2979 102.189 89.2979 103.15 90.2223L104.889 91.8952C105.85 92.8196 105.85 94.3179 104.889 95.2424L99.399 100.524L104.889 105.807C105.85 106.732 105.85 108.23 104.889 109.155ZM62.9258 133.656H100.2C100.314 136.586 102.461 138.389 105.233 138.389H114.58C117.453 138.389 119.656 135.805 119.618 133.656H156.396C157.749 133.656 158.855 134.721 158.855 136.022V138.389C158.855 143.595 154.428 147.855 149.017 147.855H70.305C64.8935 147.855 60.466 143.595 60.466 138.389V136.022C60.466 134.721 61.5729 133.656 62.9258 133.656ZM70.305 79.2253C70.305 75.3206 73.6256 72.1257 77.6842 72.1257H141.637C145.696 72.1257 149.017 75.3206 149.017 79.2253V128.923H70.305V79.2253ZM80.1439 119.456H139.178V81.5919H80.1439V119.456Z" fill="black"/>
</g>
<defs>
<filter id="filter0_d_2897_177" x="0.298828" y="0.714355" width="226.723" height="226.723" filterUnits="userSpaceOnUse" color-interpolation-filters="sRGB">
<feFlood flood-opacity="0" result="BackgroundImageFix"/>
<feColorMatrix in="SourceAlpha" type="matrix" values="0 0 0 0 0 0 0 0 0 0 0 0 0 0 0 0 0 0 127 0" result="hardAlpha"/>
<feMorphology radius="3" operator="erode" in="SourceAlpha" result="effect1_dropShadow_2897_177"/>
<feOffset dx="4" dy="4"/>
<feGaussianBlur stdDeviation="12.5"/>
<feComposite in2="hardAlpha" operator="out"/>
<feColorMatrix type="matrix" values="0 0 0 0 0 0 0 0 0 0 0 0 0 0 0 0 0 0 0.3 0"/>
<feBlend mode="normal" in2="BackgroundImageFix" result="effect1_dropShadow_2897_177"/>
<feBlend mode="normal" in="SourceGraphic" in2="effect1_dropShadow_2897_177" result="shape"/>
</filter>
</defs>
</svg>
