<svg width="228" height="227" viewBox="0 0 228 227" fill="none" xmlns="http://www.w3.org/2000/svg">
<g id="Group 31">
<g id="Ellipse 35" filter="url(#filter0_d_2897_185)">
<circle cx="109.66" cy="109.362" r="91.3616" fill="#F31F46"/>
</g>
<path id="Vector" d="M134.257 135.785H128.108V141.736C128.108 145.021 126.907 147.825 124.504 150.149C122.102 152.474 119.204 153.636 115.809 153.636H109.66C106.265 153.636 103.366 152.474 100.964 150.149C98.5619 147.825 97.3609 145.021 97.3609 141.736V135.785H81.9875C76.0304 135.785 70.954 133.756 66.7583 129.696C62.5627 125.636 60.4648 120.724 60.4648 114.96C60.4648 111.427 61.3296 108.142 63.0591 105.105C64.7886 102.068 67.1266 99.5885 70.0732 97.6671C72.2511 101.944 75.3418 105.554 79.3452 108.498C83.3487 111.442 87.8166 113.379 92.7489 114.309C88.5212 111.954 85.1583 108.731 82.6601 104.64C80.162 100.549 78.9129 96.0556 78.9129 91.1591C78.9129 83.7833 81.6192 77.4768 87.0319 72.2394C92.4446 67.002 98.9623 64.3833 106.585 64.3833C112.222 64.3833 117.33 65.8708 121.91 68.8459C126.49 71.821 129.837 75.7258 131.951 80.5603C127.595 81.9239 123.816 84.2172 120.613 87.4402C117.41 90.6632 115.168 94.4131 113.887 98.6898C116.129 95.4668 119.044 92.91 122.631 91.0196C126.218 89.1292 130.093 88.184 134.257 88.184C141.047 88.184 146.844 90.5083 151.648 95.1569C156.452 99.8054 158.854 105.415 158.854 111.985C158.854 118.555 156.452 124.164 151.648 128.813C146.844 133.461 141.047 135.785 134.257 135.785ZM133.68 126.302L114.56 106.871C114.047 106.313 113.439 106.035 112.734 106.035C112.03 106.035 111.421 106.313 110.909 106.871L91.788 126.302C91.2756 126.86 91.1155 127.588 91.3076 128.487C91.4998 129.386 91.8521 129.835 92.3646 129.835H103.51V141.736C103.51 143.409 104.103 144.819 105.288 145.966C106.473 147.112 107.93 147.686 109.66 147.686H115.809C117.538 147.686 118.996 147.112 120.181 145.966C121.366 144.819 121.958 143.409 121.958 141.736V129.835H133.104C133.616 129.835 133.969 129.386 134.161 128.487C134.353 127.588 134.193 126.86 133.68 126.302Z" fill="black"/>
</g>
<defs>
<filter id="filter0_d_2897_185" x="0.298828" y="0" width="226.723" height="226.723" filterUnits="userSpaceOnUse" color-interpolation-filters="sRGB">
<feFlood flood-opacity="0" result="BackgroundImageFix"/>
<feColorMatrix in="SourceAlpha" type="matrix" values="0 0 0 0 0 0 0 0 0 0 0 0 0 0 0 0 0 0 127 0" result="hardAlpha"/>
<feMorphology radius="3" operator="erode" in="SourceAlpha" result="effect1_dropShadow_2897_185"/>
<feOffset dx="4" dy="4"/>
<feGaussianBlur stdDeviation="12.5"/>
<feComposite in2="hardAlpha" operator="out"/>
<feColorMatrix type="matrix" values="0 0 0 0 0 0 0 0 0 0 0 0 0 0 0 0 0 0 0.3 0"/>
<feBlend mode="normal" in2="BackgroundImageFix" result="effect1_dropShadow_2897_185"/>
<feBlend mode="normal" in="SourceGraphic" in2="effect1_dropShadow_2897_185" result="shape"/>
</filter>
</defs>
</svg>
