<svg width="91" height="24" viewBox="0 0 91 24" fill="none" xmlns="http://www.w3.org/2000/svg">
<path id="Line 1" d="M2 10.5C1.17157 10.5 0.5 11.1716 0.5 12C0.5 12.8285 1.17157 13.5 2 13.5L2 10.5ZM90.0607 13.0607C90.6464 12.4749 90.6464 11.5252 90.0607 10.9394L80.5147 1.39343C79.9289 0.807642 78.9792 0.807642 78.3934 1.39343C77.8076 1.97922 77.8076 2.92896 78.3934 3.51475L86.8787 12L78.3934 20.4853C77.8076 21.0711 77.8076 22.0208 78.3934 22.6066C78.9792 23.1924 79.9289 23.1924 80.5147 22.6066L90.0607 13.0607ZM2 13.5L89 13.5V10.5L2 10.5L2 13.5Z" fill="white"/>
</svg>
